{
	"asset":{
		"generator":"Khronos glTF Blender I/O v5.0.21",
		"version":"2.0"
	},
	"scene":0,
	"scenes":[
		{
			"name":"Scene",
			"nodes":[
				28
			]
		}
	],
	"nodes":[
		{
			"name":"spine.006",
			"rotation":[
				-0.09371176362037659,
				1.8184656000653403e-15,
				1.9319454415693722e-14,
				0.9955993890762329
			],
			"scale":[
				1,
				0.9999999403953552,
				0.9999998807907104
			],
			"translation":[
				-3.705769144237564e-22,
				0.04372536018490791,
				-3.725290298461914e-09
			]
		},
		{
			"children":[
				0
			],
			"name":"spine.005",
			"rotation":[
				-0.09485775977373123,
				1.6724096337395605e-14,
				2.1322575527601105e-14,
				0.9954908490180969
			],
			"translation":[
				-1.9587636905255695e-21,
				0.046139635145664215,
				-5.587935447692871e-09
			]
		},
		{
			"children":[
				1
			],
			"name":"spine.004",
			"rotation":[
				0.1960340440273285,
				-1.1689628109934347e-07,
				2.3369032930986577e-08,
				0.9805970788002014
			],
			"translation":[
				-1.5464836383393397e-16,
				0.22664518654346466,
				0
			]
		},
		{
			"name":"hand.L",
			"rotation":[
				-0.039346445351839066,
				0.012646958231925964,
				0.027997273951768875,
				0.9987532496452332
			],
			"scale":[
				0.9999999403953552,
				1.000000238418579,
				1.0000001192092896
			],
			"translation":[
				7.846392691135406e-08,
				0.22942179441452026,
				3.725290298461914e-09
			]
		},
		{
			"children":[
				3
			],
			"name":"forearm.L",
			"rotation":[
				0.1561923623085022,
				-0.0659485012292862,
				0.04057617858052254,
				0.9846869111061096
			],
			"translation":[
				2.3283064365386963e-08,
				0.22308580577373505,
				3.725290298461914e-09
			]
		},
		{
			"children":[
				4
			],
			"name":"upper_arm.L",
			"rotation":[
				-0.03615862503647804,
				0.7390016317367554,
				-0.0615326464176178,
				0.6699126362800598
			],
			"translation":[
				-0.00017360044876113534,
				0.2956550419330597,
				-0.014221555553376675
			]
		},
		{
			"children":[
				5
			],
			"name":"shoulder.L",
			"rotation":[
				-0.548496663570404,
				-0.43674254417419434,
				-0.4442792534828186,
				0.5576947331428528
			],
			"scale":[
				0.9999999403953552,
				0.9999999403953552,
				0.9999999403953552
			],
			"translation":[
				0.012761630117893219,
				0.1886790543794632,
				0.05501452460885048
			]
		},
		{
			"name":"hand.R",
			"rotation":[
				-0.039346445351839066,
				-0.01264698151499033,
				-0.027997279539704323,
				0.9987532496452332
			],
			"scale":[
				0.9999999403953552,
				1.0000001192092896,
				1
			],
			"translation":[
				-5.3318217396736145e-08,
				0.2294217348098755,
				0
			]
		},
		{
			"children":[
				7
			],
			"name":"forearm.R",
			"rotation":[
				0.15619239211082458,
				0.06594857573509216,
				-0.04057617485523224,
				0.9846869111061096
			],
			"scale":[
				0.9999999403953552,
				0.9999999403953552,
				1
			],
			"translation":[
				-1.6763806343078613e-08,
				0.2230857014656067,
				3.725290298461914e-09
			]
		},
		{
			"children":[
				8
			],
			"name":"upper_arm.R",
			"rotation":[
				-0.036158643662929535,
				-0.7390016913414001,
				0.061532650142908096,
				0.669912576675415
			],
			"scale":[
				0.9999999403953552,
				0.9999999403953552,
				0.9999998807907104
			],
			"translation":[
				0.00017359649064019322,
				0.2956550121307373,
				-0.014221562072634697
			]
		},
		{
			"children":[
				9
			],
			"name":"shoulder.R",
			"rotation":[
				-0.5484968423843384,
				0.43674248456954956,
				0.4442790746688843,
				0.5576947331428528
			],
			"scale":[
				1,
				1.0000001192092896,
				1
			],
			"translation":[
				-0.012761656194925308,
				0.1886790543794632,
				0.055014513432979584
			]
		},
		{
			"children":[
				2,
				6,
				10
			],
			"name":"spine.003",
			"rotation":[
				0.006887224968522787,
				1.1920642606355614e-07,
				8.210206403624909e-10,
				0.9999762773513794
			],
			"scale":[
				1,
				0.9999998807907104,
				0.9999998807907104
			],
			"translation":[
				-3.1763735522036263e-22,
				0.12496088445186615,
				-1.3969838619232178e-09
			]
		},
		{
			"children":[
				11
			],
			"name":"spine.002",
			"rotation":[
				-0.053849779069423676,
				-1.1903633634346988e-07,
				-6.41938324719149e-09,
				0.9985490441322327
			],
			"scale":[
				1,
				1,
				0.9999999403953552
			],
			"translation":[
				3.464184230373205e-16,
				0.15219561755657196,
				4.3655745685100555e-09
			]
		},
		{
			"children":[
				12
			],
			"name":"spine.001",
			"rotation":[
				-0.0875151976943016,
				2.953422622025033e-14,
				-2.0865234873213012e-08,
				0.9961632490158081
			],
			"translation":[
				2.4424906541753444e-15,
				0.10615138709545135,
				-5.587935447692871e-09
			]
		},
		{
			"name":"pelvis.L",
			"rotation":[
				-0.197414830327034,
				-0.77485591173172,
				-0.3081098794937134,
				0.5154551863670349
			],
			"scale":[
				1,
				1.0000003576278687,
				1.0000001192092896
			],
			"translation":[
				2.220446049250313e-15,
				4.377216100692749e-08,
				-1.1175870895385742e-08
			]
		},
		{
			"name":"pelvis.R",
			"rotation":[
				-0.19741491973400116,
				0.7748558521270752,
				0.3081098198890686,
				0.5154552459716797
			],
			"scale":[
				1,
				1.0000001192092896,
				1
			],
			"translation":[
				2.220446049250313e-15,
				4.377216100692749e-08,
				-1.1175870895385742e-08
			]
		},
		{
			"name":"toe.L",
			"rotation":[
				7.792744582957312e-08,
				0.9612488746643066,
				-0.2756819725036621,
				1.8716208671776258e-07
			],
			"scale":[
				1,
				1.0000001192092896,
				1
			],
			"translation":[
				6.2926486243952695e-09,
				0.090130515396595,
				-7.671019375266042e-10
			]
		},
		{
			"name":"heel.02.L",
			"rotation":[
				0.6797055006027222,
				0.6797054409980774,
				-0.19493694603443146,
				0.19493724405765533
			],
			"translation":[
				-0.026499610394239426,
				0.013926389627158642,
				0.061360809952020645
			]
		},
		{
			"children":[
				16,
				17
			],
			"name":"foot.L",
			"rotation":[
				-0.5507458448410034,
				1.986526001473976e-07,
				-1.318365292490853e-07,
				0.8346730470657349
			],
			"scale":[
				1,
				0.9999999403953552,
				0.9999999403953552
			],
			"translation":[
				-2.7960050941189252e-11,
				0.20325635373592377,
				1.0527403393467694e-09
			]
		},
		{
			"children":[
				18
			],
			"name":"shin.L",
			"rotation":[
				0.1268145889043808,
				-1.1729536453231049e-07,
				1.7300997967595322e-08,
				0.9919264316558838
			],
			"translation":[
				4.561266919722584e-09,
				0.2864048182964325,
				5.238636191506885e-10
			]
		},
		{
			"children":[
				19
			],
			"name":"thigh.L",
			"rotation":[
				0.9845252633094788,
				2.0805341893748164e-09,
				2.343584668551557e-07,
				0.17524272203445435
			],
			"scale":[
				1,
				1,
				0.9999979734420776
			],
			"translation":[
				0.08813490718603134,
				0.00253273150883615,
				0.030169881880283356
			]
		},
		{
			"name":"toe.R",
			"rotation":[
				7.762917419995574e-08,
				-0.9612486362457275,
				0.2756829559803009,
				1.8716198724177957e-07
			],
			"scale":[
				1,
				0.9999995827674866,
				1
			],
			"translation":[
				1.206022393063222e-09,
				0.09013022482395172,
				4.7253010393433215e-09
			]
		},
		{
			"name":"heel.02.R",
			"rotation":[
				0.6797055006027222,
				-0.6797054409980774,
				0.19493690133094788,
				0.19493725895881653
			],
			"scale":[
				1,
				1,
				0.9999999403953552
			],
			"translation":[
				0.026499617844820023,
				0.013926554471254349,
				0.06136075407266617
			]
		},
		{
			"children":[
				21,
				22
			],
			"name":"foot.R",
			"rotation":[
				-0.5507450699806213,
				-1.9935002626425558e-07,
				1.3077981009246287e-07,
				0.8346734642982483
			],
			"scale":[
				1,
				1.0000001192092896,
				1
			],
			"translation":[
				-2.7929103474377825e-11,
				0.20325630903244019,
				-1.2143085148519361e-10
			]
		},
		{
			"children":[
				23
			],
			"name":"shin.R",
			"rotation":[
				0.1268140822649002,
				1.1919838271978733e-07,
				-1.2934092907812555e-08,
				0.9919264912605286
			],
			"scale":[
				1,
				1,
				0.9999999403953552
			],
			"translation":[
				-2.3892070544206945e-09,
				0.2864048480987549,
				-1.3387051467361744e-09
			]
		},
		{
			"children":[
				24
			],
			"name":"thigh.R",
			"rotation":[
				0.9845253229141235,
				-3.9700609022474964e-08,
				-3.710054485850378e-10,
				0.1752423793077469
			],
			"scale":[
				1,
				1,
				1.0000017881393433
			],
			"translation":[
				-0.08813492208719254,
				0.00253273150883615,
				0.030169839039444923
			]
		},
		{
			"children":[
				13,
				14,
				15,
				20,
				25
			],
			"name":"spine",
			"rotation":[
				0.12581965327262878,
				1.1826186607777345e-07,
				1.4998866149085188e-08,
				0.9920531511306763
			],
			"scale":[
				1,
				0.9999998807907104,
				0.9999998211860657
			],
			"translation":[
				0,
				0.5503090023994446,
				-0.038494136184453964
			]
		},
		{
			"mesh":0,
			"name":"Body",
			"skin":0
		},
		{
			"children":[
				27,
				26
			],
			"name":"Hero_metarig"
		}
	],
	"materials":[
		{
			"doubleSided":true,
			"name":"Material",
			"pbrMetallicRoughness":{
				"baseColorTexture":{
					"index":0
				},
				"metallicFactor":0
			}
		}
	],
	"meshes":[
		{
			"name":"Cube.001",
			"primitives":[
				{
					"attributes":{
						"POSITION":0,
						"NORMAL":1,
						"TEXCOORD_0":2,
						"JOINTS_0":3,
						"WEIGHTS_0":4
					},
					"indices":5,
					"material":0
				}
			]
		}
	],
	"textures":[
		{
			"sampler":0,
			"source":0
		}
	],
	"images":[
		{
			"mimeType":"image/png",
			"name":"Texture",
			"uri":"Texture.png"
		}
	],
	"skins":[
		{
			"inverseBindMatrices":6,
			"joints":[
				26,
				13,
				12,
				11,
				2,
				1,
				0,
				6,
				5,
				4,
				3,
				10,
				9,
				8,
				7,
				14,
				15,
				20,
				19,
				18,
				16,
				17,
				25,
				24,
				23,
				21,
				22
			],
			"name":"Hero_metarig"
		}
	],
	"accessors":[
		{
			"bufferView":0,
			"componentType":5126,
			"count":2732,
			"max":[
				0.8867642283439636,
				1.9311977624893188,
				0.25275421142578125
			],
			"min":[
				-0.8867642283439636,
				-0.008603784255683422,
				-0.25925618410110474
			],
			"type":"VEC3"
		},
		{
			"bufferView":1,
			"componentType":5126,
			"count":2732,
			"type":"VEC3"
		},
		{
			"bufferView":2,
			"componentType":5126,
			"count":2732,
			"type":"VEC2"
		},
		{
			"bufferView":3,
			"componentType":5121,
			"count":2732,
			"type":"VEC4"
		},
		{
			"bufferView":4,
			"componentType":5126,
			"count":2732,
			"type":"VEC4"
		},
		{
			"bufferView":5,
			"componentType":5123,
			"count":4116,
			"type":"SCALAR"
		},
		{
			"bufferView":6,
			"componentType":5126,
			"count":27,
			"type":"MAT4"
		}
	],
	"bufferViews":[
		{
			"buffer":0,
			"byteLength":32784,
			"byteOffset":0,
			"target":34962
		},
		{
			"buffer":0,
			"byteLength":32784,
			"byteOffset":32784,
			"target":34962
		},
		{
			"buffer":0,
			"byteLength":21856,
			"byteOffset":65568,
			"target":34962
		},
		{
			"buffer":0,
			"byteLength":10928,
			"byteOffset":87424,
			"target":34962
		},
		{
			"buffer":0,
			"byteLength":43712,
			"byteOffset":98352,
			"target":34962
		},
		{
			"buffer":0,
			"byteLength":8232,
			"byteOffset":142064,
			"target":34963
		},
		{
			"buffer":0,
			"byteLength":1728,
			"byteOffset":150296
		}
	],
	"samplers":[
		{
			"magFilter":9729,
			"minFilter":9987
		}
	],
	"buffers":[
		{
			"byteLength":152024,
			"uri":"Hero.bin"
		}
	]
}
