{
	"asset":{
		"generator":"Khronos glTF Blender I/O v5.0.21",
		"version":"2.0"
	},
	"scene":0,
	"scenes":[
		{
			"name":"Scene",
			"nodes":[
				33
			]
		}
	],
	"nodes":[
		{
			"name":"spine.006",
			"rotation":[
				-0.058785807341337204,
				3.199266481075658e-14,
				4.799199740683404e-15,
				0.9982706308364868
			],
			"translation":[
				-1.5881867761018131e-21,
				0.07062740623950958,
				-1.1175870895385742e-08
			]
		},
		{
			"children":[
				0
			],
			"name":"spine.005",
			"rotation":[
				-0.07468264549970627,
				-1.1887637185736821e-07,
				-8.902858894543897e-09,
				0.9972073435783386
			],
			"translation":[
				6.3975919932502106e-15,
				0.06548770517110825,
				-2.514570951461792e-08
			]
		},
		{
			"children":[
				1
			],
			"name":"spine.004",
			"rotation":[
				0.14434243738651276,
				-6.799153796401003e-14,
				3.4413911720321266e-08,
				0.9895278215408325
			],
			"translation":[
				1.8034316122845237e-16,
				0.17279629409313202,
				9.313225746154785e-10
			]
		},
		{
			"name":"hand.L",
			"rotation":[
				-0.026821065694093704,
				0.06785833090543747,
				-0.009750842116773129,
				0.9972867369651794
			],
			"scale":[
				1,
				0.9999998807907104,
				0.9999999403953552
			],
			"translation":[
				6.682239472866058e-08,
				0.2768707573413849,
				-1.862645149230957e-08
			]
		},
		{
			"children":[
				3
			],
			"name":"forearm.L",
			"rotation":[
				0.15103693306446075,
				-0.007531673181802034,
				0.004351768177002668,
				0.9884898662567139
			],
			"scale":[
				0.9999999403953552,
				0.9999998807907104,
				0.9999999403953552
			],
			"translation":[
				6.51925802230835e-08,
				0.21788470447063446,
				2.60770320892334e-08
			]
		},
		{
			"children":[
				4
			],
			"name":"upper_arm.L",
			"rotation":[
				0.05209904536604881,
				0.7350042462348938,
				0.031015822663903236,
				0.6753461956977844
			],
			"translation":[
				3.8477617636090145e-05,
				0.29075828194618225,
				-0.012034665793180466
			]
		},
		{
			"children":[
				5
			],
			"name":"shoulder.L",
			"rotation":[
				-0.5827455520629883,
				-0.4044889509677887,
				-0.46794918179512024,
				0.5270863771438599
			],
			"scale":[
				0.9999999403953552,
				1,
				0.9999999403953552
			],
			"translation":[
				0.012965472415089607,
				0.12539339065551758,
				0.055483151227235794
			]
		},
		{
			"name":"hand.R",
			"rotation":[
				-0.02682104893028736,
				-0.06785837560892105,
				0.00975083839148283,
				0.9972867369651794
			],
			"scale":[
				1,
				0.9999999403953552,
				1
			],
			"translation":[
				6.728805601596832e-08,
				0.2768707275390625,
				0
			]
		},
		{
			"children":[
				7
			],
			"name":"forearm.R",
			"rotation":[
				0.15103690326213837,
				0.007531750947237015,
				-0.004351750016212463,
				0.9884898662567139
			],
			"scale":[
				1,
				0.9999998211860657,
				0.9999999403953552
			],
			"translation":[
				-7.35744833946228e-08,
				0.21788467466831207,
				1.1175870895385742e-08
			]
		},
		{
			"children":[
				8
			],
			"name":"upper_arm.R",
			"rotation":[
				0.05209903419017792,
				-0.7350042462348938,
				-0.031015846878290176,
				0.6753462553024292
			],
			"scale":[
				0.9999998807907104,
				0.9999999403953552,
				0.9999999403953552
			],
			"translation":[
				-3.847619882435538e-05,
				0.29075825214385986,
				-0.012034785933792591
			]
		},
		{
			"children":[
				9
			],
			"name":"shoulder.R",
			"rotation":[
				-0.5827456712722778,
				0.40448883175849915,
				0.4679490327835083,
				0.5270863771438599
			],
			"translation":[
				-0.012965498492121696,
				0.12539339065551758,
				0.0554831437766552
			]
		},
		{
			"children":[
				2,
				6,
				10
			],
			"name":"spine.003",
			"rotation":[
				0.0036996817216277122,
				1.1920850795377191e-07,
				4.410355414208311e-10,
				0.9999931454658508
			],
			"translation":[
				2.6469779601696886e-23,
				0.13011743128299713,
				0
			]
		},
		{
			"children":[
				11
			],
			"name":"spine.002",
			"rotation":[
				-0.05916432663798332,
				-1.1900036867018571e-07,
				-7.052930683926206e-09,
				0.998248279094696
			],
			"scale":[
				1,
				0.9999998211860657,
				0.9999999403953552
			],
			"translation":[
				4.788294191487505e-16,
				0.13475275039672852,
				3.1723175197839737e-09
			]
		},
		{
			"children":[
				12
			],
			"name":"spine.001",
			"rotation":[
				-0.08183960616588593,
				9.245866062785463e-14,
				-1.9512054194592565e-08,
				0.9966455698013306
			],
			"scale":[
				1,
				0.9999998807907104,
				0.9999999403953552
			],
			"translation":[
				-2.4424906541753444e-15,
				0.1078469380736351,
				5.587935447692871e-09
			]
		},
		{
			"name":"pelvis.L",
			"rotation":[
				-0.3381342887878418,
				-0.7002694010734558,
				-0.3747747540473938,
				0.504808783531189
			],
			"scale":[
				0.9999999403953552,
				0.9999998807907104,
				0.9999999403953552
			],
			"translation":[
				-3.552713678800501e-15,
				-2.7008354663848877e-08,
				1.1175870895385742e-08
			]
		},
		{
			"name":"pelvis.R",
			"rotation":[
				-0.3381344974040985,
				0.700269341468811,
				0.37477460503578186,
				0.5048088431358337
			],
			"scale":[
				0.9999998807907104,
				0.9999997019767761,
				0.9999999403953552
			],
			"translation":[
				-3.552713678800501e-15,
				-2.7008354663848877e-08,
				1.1175870895385742e-08
			]
		},
		{
			"name":"toe.L",
			"rotation":[
				1.113349412662501e-07,
				0.9612486958503723,
				-0.2756826877593994,
				3.017517542502901e-07
			],
			"scale":[
				1,
				1.0000001192092896,
				1
			],
			"translation":[
				1.7474024005537103e-08,
				0.09156995266675949,
				-4.41303882325883e-09
			]
		},
		{
			"name":"heel.02.L",
			"rotation":[
				0.6797054409980774,
				0.6797052621841431,
				-0.1949373185634613,
				0.1949378103017807
			],
			"scale":[
				0.9999998211860657,
				0.9999996423721313,
				0.9999998807907104
			],
			"translation":[
				-0.026922879740595818,
				0.014148972928524017,
				0.0623408667743206
			]
		},
		{
			"children":[
				16,
				17
			],
			"name":"foot.L",
			"rotation":[
				-0.5309532880783081,
				2.006604660209632e-07,
				-2.553741751398775e-07,
				0.8474010825157166
			],
			"scale":[
				1,
				1.0000001192092896,
				1
			],
			"translation":[
				-4.364321348759859e-09,
				0.29650819301605225,
				1.338516852911198e-09
			]
		},
		{
			"children":[
				18
			],
			"name":"shin.L",
			"rotation":[
				0.1013045683503151,
				1.0229513947024316e-07,
				5.9112812422768e-09,
				0.9948554635047913
			],
			"scale":[
				1,
				0.9999998807907104,
				1
			],
			"translation":[
				2.5912399337357783e-08,
				0.3039871156215668,
				-2.2288388912272694e-09
			]
		},
		{
			"children":[
				19
			],
			"name":"thigh.L",
			"rotation":[
				0.9848991632461548,
				-2.568964774241067e-08,
				1.3699219891805114e-07,
				0.17312906682491302
			],
			"scale":[
				1,
				1,
				1.0000007152557373
			],
			"translation":[
				0.1923731416463852,
				0.05017457529902458,
				0.018380066379904747
			]
		},
		{
			"name":"toe.R",
			"rotation":[
				1.0994970978117635e-07,
				-0.9612486958503723,
				0.2756826877593994,
				3.0175178267199954e-07
			],
			"scale":[
				1,
				1.0000001192092896,
				1
			],
			"translation":[
				-1.7247387518182222e-08,
				0.09156995266675949,
				-1.6543850733796717e-09
			]
		},
		{
			"name":"heel.02.R",
			"rotation":[
				0.6797056794166565,
				-0.6797055602073669,
				0.1949363350868225,
				0.1949368268251419
			],
			"scale":[
				0.9999998807907104,
				0.9999997019767761,
				0.9999998807907104
			],
			"translation":[
				0.026922879740595818,
				0.014148972928524017,
				0.0623408704996109
			]
		},
		{
			"children":[
				21,
				22
			],
			"name":"foot.R",
			"rotation":[
				-0.5309532880783081,
				-2.0341234119314322e-07,
				2.5098216838159715e-07,
				0.8474010825157166
			],
			"scale":[
				1,
				1.0000001192092896,
				1
			],
			"translation":[
				4.158428712486284e-09,
				0.29650819301605225,
				9.850111837295117e-10
			]
		},
		{
			"children":[
				23
			],
			"name":"shin.R",
			"rotation":[
				0.1013045683503151,
				-1.3489649575149087e-07,
				-1.824156647955988e-08,
				0.9948554635047913
			],
			"scale":[
				1,
				0.9999998807907104,
				1
			],
			"translation":[
				-3.88992038580227e-09,
				0.3039871156215668,
				-1.4964598449296318e-09
			]
		},
		{
			"children":[
				24
			],
			"name":"thigh.R",
			"rotation":[
				0.9848991632461548,
				-2.5689642413340152e-08,
				1.3699222733976057e-07,
				0.17312906682491302
			],
			"scale":[
				1,
				1,
				1.0000007152557373
			],
			"translation":[
				-0.1923731416463852,
				0.05017457529902458,
				0.018379976972937584
			]
		},
		{
			"children":[
				13,
				14,
				15,
				20,
				25
			],
			"name":"spine",
			"rotation":[
				0.1258196085691452,
				1.1826175949636308e-07,
				1.4998843056446276e-08,
				0.9920531511306763
			],
			"scale":[
				1,
				0.9999999403953552,
				0.9999998807907104
			],
			"translation":[
				0,
				0.6137666702270508,
				-0.0391090027987957
			]
		},
		{
			"mesh":0,
			"name":"Arm Armor",
			"skin":0
		},
		{
			"mesh":1,
			"name":"Belt",
			"skin":0
		},
		{
			"mesh":2,
			"name":"Hand Armor",
			"skin":0
		},
		{
			"mesh":3,
			"name":"Knight",
			"skin":0
		},
		{
			"mesh":4,
			"name":"Leg Atmor",
			"skin":0
		},
		{
			"mesh":5,
			"name":"Shoulder Armor",
			"skin":0
		},
		{
			"children":[
				27,
				28,
				29,
				30,
				31,
				32,
				26
			],
			"name":"Knight_metarig"
		}
	],
	"materials":[
		{
			"doubleSided":true,
			"name":"Material",
			"pbrMetallicRoughness":{
				"baseColorTexture":{
					"index":0
				},
				"metallicFactor":0
			}
		}
	],
	"meshes":[
		{
			"name":"Cube.005",
			"primitives":[
				{
					"attributes":{
						"POSITION":0,
						"NORMAL":1,
						"TEXCOORD_0":2,
						"JOINTS_0":3,
						"WEIGHTS_0":4
					},
					"indices":5,
					"material":0
				}
			]
		},
		{
			"name":"Cube.003",
			"primitives":[
				{
					"attributes":{
						"POSITION":7,
						"NORMAL":8,
						"TEXCOORD_0":9,
						"JOINTS_0":10,
						"WEIGHTS_0":11
					},
					"indices":12,
					"material":0
				}
			]
		},
		{
			"name":"Cube.002",
			"primitives":[
				{
					"attributes":{
						"POSITION":13,
						"NORMAL":14,
						"TEXCOORD_0":15,
						"JOINTS_0":16,
						"WEIGHTS_0":17
					},
					"indices":18,
					"material":0
				}
			]
		},
		{
			"name":"Cylinder",
			"primitives":[
				{
					"attributes":{
						"POSITION":19,
						"NORMAL":20,
						"TEXCOORD_0":21,
						"JOINTS_0":22,
						"WEIGHTS_0":23
					},
					"indices":24,
					"material":0
				}
			]
		},
		{
			"name":"Cylinder.002",
			"primitives":[
				{
					"attributes":{
						"POSITION":25,
						"NORMAL":26,
						"TEXCOORD_0":27,
						"JOINTS_0":28,
						"WEIGHTS_0":29
					},
					"indices":30,
					"material":0
				}
			]
		},
		{
			"name":"Cube.006",
			"primitives":[
				{
					"attributes":{
						"POSITION":31,
						"NORMAL":32,
						"TEXCOORD_0":33,
						"JOINTS_0":34,
						"WEIGHTS_0":35
					},
					"indices":36,
					"material":0
				}
			]
		}
	],
	"textures":[
		{
			"sampler":0,
			"source":0
		}
	],
	"images":[
		{
			"mimeType":"image/png",
			"name":"Texture",
			"uri":"Texture.png"
		}
	],
	"skins":[
		{
			"inverseBindMatrices":6,
			"joints":[
				26,
				13,
				12,
				11,
				2,
				1,
				0,
				6,
				5,
				4,
				3,
				10,
				9,
				8,
				7,
				14,
				15,
				20,
				19,
				18,
				16,
				17,
				25,
				24,
				23,
				21,
				22
			],
			"name":"Knight_metarig"
		}
	],
	"accessors":[
		{
			"bufferView":0,
			"componentType":5126,
			"count":256,
			"max":[
				0.4726966917514801,
				1.15392005443573,
				0.0899299755692482
			],
			"min":[
				-0.4726966917514801,
				0.9660006761550903,
				-0.09287510812282562
			],
			"type":"VEC3"
		},
		{
			"bufferView":1,
			"componentType":5126,
			"count":256,
			"type":"VEC3"
		},
		{
			"bufferView":2,
			"componentType":5126,
			"count":256,
			"type":"VEC2"
		},
		{
			"bufferView":3,
			"componentType":5121,
			"count":256,
			"type":"VEC4"
		},
		{
			"bufferView":4,
			"componentType":5126,
			"count":256,
			"type":"VEC4"
		},
		{
			"bufferView":5,
			"componentType":5123,
			"count":384,
			"type":"SCALAR"
		},
		{
			"bufferView":6,
			"componentType":5126,
			"count":27,
			"type":"MAT4"
		},
		{
			"bufferView":7,
			"componentType":5126,
			"count":538,
			"max":[
				0.26887965202331543,
				0.834316074848175,
				0.17272500693798065
			],
			"min":[
				-0.26887965202331543,
				0.667701244354248,
				-0.1726631224155426
			],
			"type":"VEC3"
		},
		{
			"bufferView":8,
			"componentType":5126,
			"count":538,
			"type":"VEC3"
		},
		{
			"bufferView":9,
			"componentType":5126,
			"count":538,
			"type":"VEC2"
		},
		{
			"bufferView":10,
			"componentType":5121,
			"count":538,
			"type":"VEC4"
		},
		{
			"bufferView":11,
			"componentType":5126,
			"count":538,
			"type":"VEC4"
		},
		{
			"bufferView":12,
			"componentType":5123,
			"count":870,
			"type":"SCALAR"
		},
		{
			"bufferView":13,
			"componentType":5126,
			"count":256,
			"max":[
				0.7665426135063171,
				1.1715589761734009,
				0.08497367799282074
			],
			"min":[
				-0.7665426135063171,
				0.9412097930908203,
				-0.08769796043634415
			],
			"type":"VEC3"
		},
		{
			"bufferView":14,
			"componentType":5126,
			"count":256,
			"type":"VEC3"
		},
		{
			"bufferView":15,
			"componentType":5126,
			"count":256,
			"type":"VEC2"
		},
		{
			"bufferView":16,
			"componentType":5121,
			"count":256,
			"type":"VEC4"
		},
		{
			"bufferView":17,
			"componentType":5126,
			"count":256,
			"type":"VEC4"
		},
		{
			"bufferView":18,
			"componentType":5123,
			"count":384,
			"type":"SCALAR"
		},
		{
			"bufferView":19,
			"componentType":5126,
			"count":2940,
			"max":[
				0.9172658920288086,
				1.9604578018188477,
				0.31543517112731934
			],
			"min":[
				-0.9172658920288086,
				-0.003424864262342453,
				-0.23403270542621613
			],
			"type":"VEC3"
		},
		{
			"bufferView":20,
			"componentType":5126,
			"count":2940,
			"type":"VEC3"
		},
		{
			"bufferView":21,
			"componentType":5126,
			"count":2940,
			"type":"VEC2"
		},
		{
			"bufferView":22,
			"componentType":5121,
			"count":2940,
			"type":"VEC4"
		},
		{
			"bufferView":23,
			"componentType":5126,
			"count":2940,
			"type":"VEC4"
		},
		{
			"bufferView":24,
			"componentType":5123,
			"count":5232,
			"type":"SCALAR"
		},
		{
			"bufferView":25,
			"componentType":5126,
			"count":316,
			"max":[
				0.30915844440460205,
				0.4079347252845764,
				0.1235523521900177
			],
			"min":[
				-0.30915844440460205,
				0.27576446533203125,
				-0.11294811218976974
			],
			"type":"VEC3"
		},
		{
			"bufferView":26,
			"componentType":5126,
			"count":316,
			"type":"VEC3"
		},
		{
			"bufferView":27,
			"componentType":5126,
			"count":316,
			"type":"VEC2"
		},
		{
			"bufferView":28,
			"componentType":5121,
			"count":316,
			"type":"VEC4"
		},
		{
			"bufferView":29,
			"componentType":5126,
			"count":316,
			"type":"VEC4"
		},
		{
			"bufferView":30,
			"componentType":5123,
			"count":504,
			"type":"SCALAR"
		},
		{
			"bufferView":31,
			"componentType":5126,
			"count":288,
			"max":[
				0.4327104091644287,
				1.2814775705337524,
				0.11255228519439697
			],
			"min":[
				-0.4327104091644287,
				1.179121971130371,
				-0.11502805352210999
			],
			"type":"VEC3"
		},
		{
			"bufferView":32,
			"componentType":5126,
			"count":288,
			"type":"VEC3"
		},
		{
			"bufferView":33,
			"componentType":5126,
			"count":288,
			"type":"VEC2"
		},
		{
			"bufferView":34,
			"componentType":5121,
			"count":288,
			"type":"VEC4"
		},
		{
			"bufferView":35,
			"componentType":5126,
			"count":288,
			"type":"VEC4"
		},
		{
			"bufferView":36,
			"componentType":5123,
			"count":456,
			"type":"SCALAR"
		}
	],
	"bufferViews":[
		{
			"buffer":0,
			"byteLength":3072,
			"byteOffset":0,
			"target":34962
		},
		{
			"buffer":0,
			"byteLength":3072,
			"byteOffset":3072,
			"target":34962
		},
		{
			"buffer":0,
			"byteLength":2048,
			"byteOffset":6144,
			"target":34962
		},
		{
			"buffer":0,
			"byteLength":1024,
			"byteOffset":8192,
			"target":34962
		},
		{
			"buffer":0,
			"byteLength":4096,
			"byteOffset":9216,
			"target":34962
		},
		{
			"buffer":0,
			"byteLength":768,
			"byteOffset":13312,
			"target":34963
		},
		{
			"buffer":0,
			"byteLength":1728,
			"byteOffset":14080
		},
		{
			"buffer":0,
			"byteLength":6456,
			"byteOffset":15808,
			"target":34962
		},
		{
			"buffer":0,
			"byteLength":6456,
			"byteOffset":22264,
			"target":34962
		},
		{
			"buffer":0,
			"byteLength":4304,
			"byteOffset":28720,
			"target":34962
		},
		{
			"buffer":0,
			"byteLength":2152,
			"byteOffset":33024,
			"target":34962
		},
		{
			"buffer":0,
			"byteLength":8608,
			"byteOffset":35176,
			"target":34962
		},
		{
			"buffer":0,
			"byteLength":1740,
			"byteOffset":43784,
			"target":34963
		},
		{
			"buffer":0,
			"byteLength":3072,
			"byteOffset":45524,
			"target":34962
		},
		{
			"buffer":0,
			"byteLength":3072,
			"byteOffset":48596,
			"target":34962
		},
		{
			"buffer":0,
			"byteLength":2048,
			"byteOffset":51668,
			"target":34962
		},
		{
			"buffer":0,
			"byteLength":1024,
			"byteOffset":53716,
			"target":34962
		},
		{
			"buffer":0,
			"byteLength":4096,
			"byteOffset":54740,
			"target":34962
		},
		{
			"buffer":0,
			"byteLength":768,
			"byteOffset":58836,
			"target":34963
		},
		{
			"buffer":0,
			"byteLength":35280,
			"byteOffset":59604,
			"target":34962
		},
		{
			"buffer":0,
			"byteLength":35280,
			"byteOffset":94884,
			"target":34962
		},
		{
			"buffer":0,
			"byteLength":23520,
			"byteOffset":130164,
			"target":34962
		},
		{
			"buffer":0,
			"byteLength":11760,
			"byteOffset":153684,
			"target":34962
		},
		{
			"buffer":0,
			"byteLength":47040,
			"byteOffset":165444,
			"target":34962
		},
		{
			"buffer":0,
			"byteLength":10464,
			"byteOffset":212484,
			"target":34963
		},
		{
			"buffer":0,
			"byteLength":3792,
			"byteOffset":222948,
			"target":34962
		},
		{
			"buffer":0,
			"byteLength":3792,
			"byteOffset":226740,
			"target":34962
		},
		{
			"buffer":0,
			"byteLength":2528,
			"byteOffset":230532,
			"target":34962
		},
		{
			"buffer":0,
			"byteLength":1264,
			"byteOffset":233060,
			"target":34962
		},
		{
			"buffer":0,
			"byteLength":5056,
			"byteOffset":234324,
			"target":34962
		},
		{
			"buffer":0,
			"byteLength":1008,
			"byteOffset":239380,
			"target":34963
		},
		{
			"buffer":0,
			"byteLength":3456,
			"byteOffset":240388,
			"target":34962
		},
		{
			"buffer":0,
			"byteLength":3456,
			"byteOffset":243844,
			"target":34962
		},
		{
			"buffer":0,
			"byteLength":2304,
			"byteOffset":247300,
			"target":34962
		},
		{
			"buffer":0,
			"byteLength":1152,
			"byteOffset":249604,
			"target":34962
		},
		{
			"buffer":0,
			"byteLength":4608,
			"byteOffset":250756,
			"target":34962
		},
		{
			"buffer":0,
			"byteLength":912,
			"byteOffset":255364,
			"target":34963
		}
	],
	"samplers":[
		{
			"magFilter":9729,
			"minFilter":9987
		}
	],
	"buffers":[
		{
			"byteLength":256276,
			"uri":"Knight_Hero.bin"
		}
	]
}
