{
	"asset":{
		"generator":"Khronos glTF Blender I/O v5.0.21",
		"version":"2.0"
	},
	"scene":0,
	"scenes":[
		{
			"name":"Scene",
			"nodes":[
				31
			]
		}
	],
	"nodes":[
		{
			"name":"spine.006",
			"rotation":[
				-0.0235123410820961,
				-1.1917637010583348e-07,
				-2.802893028786002e-09,
				0.9997235536575317
			],
			"translation":[
				-1.414962079762086e-15,
				0.2488745152950287,
				-1.862645149230957e-09
			]
		},
		{
			"children":[
				0
			],
			"name":"spine.005",
			"rotation":[
				-0.1645832508802414,
				1.1758368856362722e-07,
				-1.961985063303473e-08,
				0.9863631725311279
			],
			"scale":[
				1,
				1,
				0.9999998807907104
			],
			"translation":[
				-2.6469779601696886e-23,
				0.06616336852312088,
				-6.51925802230835e-09
			]
		},
		{
			"children":[
				1
			],
			"name":"spine.004",
			"rotation":[
				0.19597747921943665,
				-1.1472118640090357e-21,
				-1.3901508315325427e-21,
				0.9806084632873535
			],
			"scale":[
				1,
				0.9999998211860657,
				0.9999998807907104
			],
			"translation":[
				0,
				0.3272344172000885,
				2.7939677238464355e-09
			]
		},
		{
			"name":"hand.L",
			"rotation":[
				-0.03450213000178337,
				0.006775822956115007,
				0.00816234853118658,
				0.9993483424186707
			],
			"scale":[
				0.9999999403953552,
				0.9999999403953552,
				1
			],
			"translation":[
				1.8579885363578796e-07,
				0.380309134721756,
				1.1175870895385742e-08
			]
		},
		{
			"children":[
				3
			],
			"name":"forearm.L",
			"rotation":[
				0.1432735174894333,
				-0.04720018804073334,
				0.05320155248045921,
				0.9871243834495544
			],
			"scale":[
				0.9999999403953552,
				0.9999999403953552,
				0.9999998211860657
			],
			"translation":[
				1.3899989426136017e-07,
				0.33738964796066284,
				7.450580596923828e-09
			]
		},
		{
			"children":[
				4
			],
			"name":"upper_arm.L",
			"rotation":[
				-0.06566286087036133,
				0.7354708909988403,
				-0.1172570064663887,
				0.6640947461128235
			],
			"scale":[
				0.9999999403953552,
				0.9999998807907104,
				0.9999998807907104
			],
			"translation":[
				0.007232083473354578,
				0.40924859046936035,
				-0.020385513082146645
			]
		},
		{
			"children":[
				5
			],
			"name":"shoulder.L",
			"rotation":[
				-0.5542765259742737,
				-0.42945435643196106,
				-0.4368307888507843,
				0.5634939074516296
			],
			"scale":[
				0.9999997615814209,
				0.9999999403953552,
				0.9999998211860657
			],
			"translation":[
				0.018299998715519905,
				0.2728005647659302,
				0.07889625430107117
			]
		},
		{
			"name":"hand.R",
			"rotation":[
				-0.03450213000178337,
				-0.006775822956115007,
				-0.00816234853118658,
				0.9993483424186707
			],
			"scale":[
				0.9999999403953552,
				0.9999999403953552,
				1
			],
			"translation":[
				-1.8579885363578796e-07,
				0.380309134721756,
				1.1175870895385742e-08
			]
		},
		{
			"children":[
				7
			],
			"name":"forearm.R",
			"rotation":[
				0.1432735174894333,
				0.04720018804073334,
				-0.05320155248045921,
				0.9871243834495544
			],
			"scale":[
				0.9999999403953552,
				0.9999999403953552,
				0.9999998211860657
			],
			"translation":[
				-1.3899989426136017e-07,
				0.33738964796066284,
				7.450580596923828e-09
			]
		},
		{
			"children":[
				8
			],
			"name":"upper_arm.R",
			"rotation":[
				-0.06566286087036133,
				-0.7354708909988403,
				0.1172570064663887,
				0.6640947461128235
			],
			"scale":[
				0.9999999403953552,
				0.9999998807907104,
				0.9999998807907104
			],
			"translation":[
				-0.007232083473354578,
				0.40924859046936035,
				-0.020385513082146645
			]
		},
		{
			"children":[
				9
			],
			"name":"shoulder.R",
			"rotation":[
				-0.5542765259742737,
				0.42945435643196106,
				0.4368307888507843,
				0.5634939074516296
			],
			"scale":[
				0.9999997615814209,
				0.9999999403953552,
				0.9999998211860657
			],
			"translation":[
				-0.018299998715519905,
				0.2728005647659302,
				0.07889625430107117
			]
		},
		{
			"children":[
				2,
				6,
				10
			],
			"name":"spine.003",
			"rotation":[
				0.005420511122792959,
				4.814963338160439e-18,
				8.881657142059164e-16,
				0.9999853372573853
			],
			"scale":[
				1,
				0.9999999403953552,
				1
			],
			"translation":[
				-3.2596086013417747e-23,
				0.19894471764564514,
				-4.656612873077393e-10
			]
		},
		{
			"children":[
				11
			],
			"name":"spine.002",
			"rotation":[
				-0.05487484484910965,
				-1.190296643471811e-07,
				-6.541591268671709e-09,
				0.9984932541847229
			],
			"translation":[
				1.1934897514720433e-15,
				0.20472075045108795,
				-5.034962669014931e-09
			]
		},
		{
			"children":[
				12
			],
			"name":"spine.001",
			"rotation":[
				-0.04561789333820343,
				3.4341643027555047e-14,
				-1.0876148870408997e-08,
				0.998958945274353
			],
			"scale":[
				1,
				1.0000001192092896,
				1
			],
			"translation":[
				-3.552713678800501e-15,
				0.220219686627388,
				-7.450580596923828e-09
			]
		},
		{
			"name":"pelvis.L",
			"rotation":[
				-0.303017258644104,
				-0.6943766474723816,
				-0.3957245349884033,
				0.5190604329109192
			],
			"scale":[
				0.9999999403953552,
				1,
				1.0000001192092896
			],
			"translation":[
				-8.881784197001252e-16,
				-8.195638656616211e-08,
				-7.450580596923828e-09
			]
		},
		{
			"name":"pelvis.R",
			"rotation":[
				-0.3030173182487488,
				0.694376528263092,
				0.3957245349884033,
				0.5190606117248535
			],
			"scale":[
				1.0000001192092896,
				0.9999997615814209,
				0.9999999403953552
			],
			"translation":[
				-8.881784197001252e-16,
				-8.195638656616211e-08,
				-7.450580596923828e-09
			]
		},
		{
			"name":"toe.L",
			"rotation":[
				7.77781465899352e-08,
				0.9612488150596619,
				-0.27568215131759644,
				1.8716205829605315e-07
			],
			"translation":[
				1.5455880131298727e-08,
				0.12924569845199585,
				-2.4063027126430825e-09
			]
		},
		{
			"name":"heel.02.L",
			"rotation":[
				0.6797056794166565,
				0.6797055602073669,
				-0.19493643939495087,
				0.19493676722049713
			],
			"scale":[
				1,
				1,
				0.9999998807907104
			],
			"translation":[
				-0.03800002858042717,
				0.019970279186964035,
				0.08799044042825699
			]
		},
		{
			"children":[
				16,
				17
			],
			"name":"foot.L",
			"rotation":[
				-0.5434425473213196,
				1.0006969120013309e-07,
				-1.9435013598467776e-07,
				0.8394464254379272
			],
			"scale":[
				1,
				0.9999999403953552,
				1
			],
			"translation":[
				-2.1498976821021643e-08,
				0.32834815979003906,
				6.2473652917560685e-09
			]
		},
		{
			"children":[
				18
			],
			"name":"shin.L",
			"rotation":[
				0.144318088889122,
				1.1948316114285262e-07,
				2.7638577648758655e-08,
				0.989531397819519
			],
			"scale":[
				1,
				0.9999999403953552,
				0.9999999403953552
			],
			"translation":[
				-6.436891464289829e-09,
				0.2694070637226105,
				9.31309518392709e-09
			]
		},
		{
			"children":[
				19
			],
			"name":"thigh.L",
			"rotation":[
				0.9867284297943115,
				-8.952146579588316e-09,
				1.1591475868044654e-07,
				0.16237924993038177
			],
			"scale":[
				1,
				1,
				0.9999986290931702
			],
			"translation":[
				0.24886015057563782,
				-0.02654849737882614,
				0.048102665692567825
			]
		},
		{
			"name":"toe.R",
			"rotation":[
				7.777813948450785e-08,
				-0.9612488150596619,
				0.27568215131759644,
				1.8716205829605315e-07
			],
			"translation":[
				-1.545590322393764e-08,
				0.12924569845199585,
				-8.925425731831638e-09
			]
		},
		{
			"name":"heel.02.R",
			"rotation":[
				0.6797056794166565,
				-0.6797055602073669,
				0.19493643939495087,
				0.19493676722049713
			],
			"scale":[
				1,
				1,
				0.9999998807907104
			],
			"translation":[
				0.03800002858042717,
				0.019970284774899483,
				0.08799044042825699
			]
		},
		{
			"children":[
				21,
				22
			],
			"name":"foot.R",
			"rotation":[
				-0.5434425473213196,
				-1.0006970541098781e-07,
				1.9435013598467776e-07,
				0.8394464254379272
			],
			"scale":[
				1,
				0.9999999403953552,
				1
			],
			"translation":[
				2.149898037373532e-08,
				0.3283481001853943,
				4.385000806905737e-09
			]
		},
		{
			"children":[
				23
			],
			"name":"shin.R",
			"rotation":[
				0.144318088889122,
				-1.1643953001794216e-07,
				-6.76953160194671e-09,
				0.989531397819519
			],
			"scale":[
				1,
				0.9999999403953552,
				0.9999999403953552
			],
			"translation":[
				-2.1338051325869856e-08,
				0.26940715312957764,
				1.676393779348473e-08
			]
		},
		{
			"children":[
				24
			],
			"name":"thigh.R",
			"rotation":[
				0.9867284297943115,
				-8.952146579588316e-09,
				1.1591475868044654e-07,
				0.16237924993038177
			],
			"scale":[
				1,
				1,
				0.9999986290931702
			],
			"translation":[
				-0.2488601803779602,
				-0.026548437774181366,
				0.04810253158211708
			]
		},
		{
			"children":[
				13,
				14,
				15,
				20,
				25
			],
			"name":"spine",
			"rotation":[
				0.08660277724266052,
				1.1876137051558544e-07,
				1.0323857324578967e-08,
				0.9962429404258728
			],
			"scale":[
				1,
				1,
				0.9999999403953552
			],
			"translation":[
				0,
				0.711196780204773,
				-0.0551999993622303
			]
		},
		{
			"mesh":0,
			"name":"Belt",
			"skin":0
		},
		{
			"mesh":1,
			"name":"Eyes",
			"skin":0
		},
		{
			"mesh":2,
			"name":"Hat",
			"skin":0
		},
		{
			"mesh":3,
			"name":"Wizard",
			"skin":0
		},
		{
			"children":[
				27,
				28,
				29,
				30,
				26
			],
			"name":"Wizard_metarig",
			"scale":[
				0.6839507818222046,
				0.6839507818222046,
				0.6839507818222046
			]
		}
	],
	"materials":[
		{
			"doubleSided":true,
			"name":"Material",
			"pbrMetallicRoughness":{
				"baseColorTexture":{
					"index":0
				},
				"metallicFactor":0
			}
		}
	],
	"meshes":[
		{
			"name":"Cube.005",
			"primitives":[
				{
					"attributes":{
						"POSITION":0,
						"NORMAL":1,
						"TEXCOORD_0":2,
						"JOINTS_0":3,
						"WEIGHTS_0":4
					},
					"indices":5,
					"material":0
				}
			]
		},
		{
			"name":"Cube.004",
			"primitives":[
				{
					"attributes":{
						"POSITION":7,
						"NORMAL":8,
						"TEXCOORD_0":9,
						"JOINTS_0":10,
						"WEIGHTS_0":11
					},
					"indices":12,
					"material":0
				}
			]
		},
		{
			"name":"Circle",
			"primitives":[
				{
					"attributes":{
						"POSITION":13,
						"NORMAL":14,
						"TEXCOORD_0":15,
						"JOINTS_0":16,
						"WEIGHTS_0":17
					},
					"indices":18,
					"material":0
				}
			]
		},
		{
			"name":"Cube.001",
			"primitives":[
				{
					"attributes":{
						"POSITION":19,
						"NORMAL":20,
						"TEXCOORD_0":21,
						"COLOR_0":22,
						"COLOR_1":23,
						"JOINTS_0":24,
						"WEIGHTS_0":25
					},
					"indices":26,
					"material":0
				}
			]
		}
	],
	"textures":[
		{
			"sampler":0,
			"source":0
		}
	],
	"images":[
		{
			"mimeType":"image/png",
			"name":"Texture",
			"uri":"Texture.png"
		}
	],
	"skins":[
		{
			"inverseBindMatrices":6,
			"joints":[
				26,
				13,
				12,
				11,
				2,
				1,
				0,
				6,
				5,
				4,
				3,
				10,
				9,
				8,
				7,
				14,
				15,
				20,
				19,
				18,
				16,
				17,
				25,
				24,
				23,
				21,
				22
			],
			"name":"Wizard_metarig"
		}
	],
	"accessors":[
		{
			"bufferView":0,
			"componentType":5126,
			"count":128,
			"max":[
				0.30458009243011475,
				0.7799872756004333,
				0.19560255110263824
			],
			"min":[
				-0.30458009243011475,
				0.6766821146011353,
				-0.17370565235614777
			],
			"type":"VEC3"
		},
		{
			"bufferView":1,
			"componentType":5126,
			"count":128,
			"type":"VEC3"
		},
		{
			"bufferView":2,
			"componentType":5126,
			"count":128,
			"type":"VEC2"
		},
		{
			"bufferView":3,
			"componentType":5121,
			"count":128,
			"type":"VEC4"
		},
		{
			"bufferView":4,
			"componentType":5126,
			"count":128,
			"type":"VEC4"
		},
		{
			"bufferView":5,
			"componentType":5123,
			"count":192,
			"type":"SCALAR"
		},
		{
			"bufferView":6,
			"componentType":5126,
			"count":27,
			"type":"MAT4"
		},
		{
			"bufferView":7,
			"componentType":5126,
			"count":48,
			"max":[
				0.16245423257350922,
				1.5774486064910889,
				0.24146915972232819
			],
			"min":[
				-0.16245423257350922,
				1.48149573802948,
				0.20980580151081085
			],
			"type":"VEC3"
		},
		{
			"bufferView":8,
			"componentType":5126,
			"count":48,
			"type":"VEC3"
		},
		{
			"bufferView":9,
			"componentType":5126,
			"count":48,
			"type":"VEC2"
		},
		{
			"bufferView":10,
			"componentType":5121,
			"count":48,
			"type":"VEC4"
		},
		{
			"bufferView":11,
			"componentType":5126,
			"count":48,
			"type":"VEC4"
		},
		{
			"bufferView":12,
			"componentType":5123,
			"count":72,
			"type":"SCALAR"
		},
		{
			"bufferView":13,
			"componentType":5126,
			"count":500,
			"max":[
				0.4912809133529663,
				2.2542269229888916,
				0.4912809133529663
			],
			"min":[
				-0.4912809133529663,
				1.5661678314208984,
				-0.4912809133529663
			],
			"type":"VEC3"
		},
		{
			"bufferView":14,
			"componentType":5126,
			"count":500,
			"type":"VEC3"
		},
		{
			"bufferView":15,
			"componentType":5126,
			"count":500,
			"type":"VEC2"
		},
		{
			"bufferView":16,
			"componentType":5121,
			"count":500,
			"type":"VEC4"
		},
		{
			"bufferView":17,
			"componentType":5126,
			"count":500,
			"type":"VEC4"
		},
		{
			"bufferView":18,
			"componentType":5123,
			"count":756,
			"type":"SCALAR"
		},
		{
			"bufferView":19,
			"componentType":5126,
			"count":5372,
			"max":[
				0.9385332465171814,
				1.7575912475585938,
				0.3556085526943207
			],
			"min":[
				-0.9385332465171814,
				0.002905607223510742,
				-0.30659958720207214
			],
			"type":"VEC3"
		},
		{
			"bufferView":20,
			"componentType":5126,
			"count":5372,
			"type":"VEC3"
		},
		{
			"bufferView":21,
			"componentType":5126,
			"count":5372,
			"type":"VEC2"
		},
		{
			"bufferView":22,
			"componentType":5121,
			"count":5372,
			"normalized":true,
			"type":"VEC4"
		},
		{
			"bufferView":23,
			"componentType":5123,
			"count":5372,
			"normalized":true,
			"type":"VEC4"
		},
		{
			"bufferView":24,
			"componentType":5121,
			"count":5372,
			"type":"VEC4"
		},
		{
			"bufferView":25,
			"componentType":5126,
			"count":5372,
			"type":"VEC4"
		},
		{
			"bufferView":26,
			"componentType":5123,
			"count":8064,
			"type":"SCALAR"
		}
	],
	"bufferViews":[
		{
			"buffer":0,
			"byteLength":1536,
			"byteOffset":0,
			"target":34962
		},
		{
			"buffer":0,
			"byteLength":1536,
			"byteOffset":1536,
			"target":34962
		},
		{
			"buffer":0,
			"byteLength":1024,
			"byteOffset":3072,
			"target":34962
		},
		{
			"buffer":0,
			"byteLength":512,
			"byteOffset":4096,
			"target":34962
		},
		{
			"buffer":0,
			"byteLength":2048,
			"byteOffset":4608,
			"target":34962
		},
		{
			"buffer":0,
			"byteLength":384,
			"byteOffset":6656,
			"target":34963
		},
		{
			"buffer":0,
			"byteLength":1728,
			"byteOffset":7040
		},
		{
			"buffer":0,
			"byteLength":576,
			"byteOffset":8768,
			"target":34962
		},
		{
			"buffer":0,
			"byteLength":576,
			"byteOffset":9344,
			"target":34962
		},
		{
			"buffer":0,
			"byteLength":384,
			"byteOffset":9920,
			"target":34962
		},
		{
			"buffer":0,
			"byteLength":192,
			"byteOffset":10304,
			"target":34962
		},
		{
			"buffer":0,
			"byteLength":768,
			"byteOffset":10496,
			"target":34962
		},
		{
			"buffer":0,
			"byteLength":144,
			"byteOffset":11264,
			"target":34963
		},
		{
			"buffer":0,
			"byteLength":6000,
			"byteOffset":11408,
			"target":34962
		},
		{
			"buffer":0,
			"byteLength":6000,
			"byteOffset":17408,
			"target":34962
		},
		{
			"buffer":0,
			"byteLength":4000,
			"byteOffset":23408,
			"target":34962
		},
		{
			"buffer":0,
			"byteLength":2000,
			"byteOffset":27408,
			"target":34962
		},
		{
			"buffer":0,
			"byteLength":8000,
			"byteOffset":29408,
			"target":34962
		},
		{
			"buffer":0,
			"byteLength":1512,
			"byteOffset":37408,
			"target":34963
		},
		{
			"buffer":0,
			"byteLength":64464,
			"byteOffset":38920,
			"target":34962
		},
		{
			"buffer":0,
			"byteLength":64464,
			"byteOffset":103384,
			"target":34962
		},
		{
			"buffer":0,
			"byteLength":42976,
			"byteOffset":167848,
			"target":34962
		},
		{
			"buffer":0,
			"byteLength":21488,
			"byteOffset":210824,
			"target":34962
		},
		{
			"buffer":0,
			"byteLength":42976,
			"byteOffset":232312,
			"target":34962
		},
		{
			"buffer":0,
			"byteLength":21488,
			"byteOffset":275288,
			"target":34962
		},
		{
			"buffer":0,
			"byteLength":85952,
			"byteOffset":296776,
			"target":34962
		},
		{
			"buffer":0,
			"byteLength":16128,
			"byteOffset":382728,
			"target":34963
		}
	],
	"samplers":[
		{
			"magFilter":9729,
			"minFilter":9987
		}
	],
	"buffers":[
		{
			"byteLength":398856,
			"uri":"Wizard_Hero.bin"
		}
	]
}
