{
	"asset":{
		"generator":"Khronos glTF Blender I/O v5.0.21",
		"version":"2.0"
	},
	"scene":0,
	"scenes":[
		{
			"name":"Scene",
			"nodes":[
				0
			]
		}
	],
	"nodes":[
		{
			"mesh":0,
			"name":"Sword"
		}
	],
	"materials":[
		{
			"doubleSided":true,
			"name":"Material",
			"pbrMetallicRoughness":{
				"baseColorTexture":{
					"index":0
				},
				"metallicFactor":0
			}
		}
	],
	"meshes":[
		{
			"name":"Cylinder.001",
			"primitives":[
				{
					"attributes":{
						"POSITION":0,
						"NORMAL":1,
						"TEXCOORD_0":2
					},
					"indices":3,
					"material":0
				}
			]
		}
	],
	"textures":[
		{
			"sampler":0,
			"source":0
		}
	],
	"images":[
		{
			"mimeType":"image/png",
			"name":"Texture",
			"uri":"Texture.png"
		}
	],
	"accessors":[
		{
			"bufferView":0,
			"componentType":5126,
			"count":286,
			"max":[
				0.05963051691651344,
				0.9580884575843811,
				0.13285154104232788
			],
			"min":[
				-0.05963051691651344,
				-0.18798159062862396,
				-0.13285154104232788
			],
			"type":"VEC3"
		},
		{
			"bufferView":1,
			"componentType":5126,
			"count":286,
			"type":"VEC3"
		},
		{
			"bufferView":2,
			"componentType":5126,
			"count":286,
			"type":"VEC2"
		},
		{
			"bufferView":3,
			"componentType":5123,
			"count":450,
			"type":"SCALAR"
		}
	],
	"bufferViews":[
		{
			"buffer":0,
			"byteLength":3432,
			"byteOffset":0,
			"target":34962
		},
		{
			"buffer":0,
			"byteLength":3432,
			"byteOffset":3432,
			"target":34962
		},
		{
			"buffer":0,
			"byteLength":2288,
			"byteOffset":6864,
			"target":34962
		},
		{
			"buffer":0,
			"byteLength":900,
			"byteOffset":9152,
			"target":34963
		}
	],
	"samplers":[
		{
			"magFilter":9729,
			"minFilter":9987
		}
	],
	"buffers":[
		{
			"byteLength":10052,
			"uri":"Sword_Hero.bin"
		}
	]
}
